<svg xmlns="http://www.w3.org/2000/svg" width="16.185" height="20.59" viewBox="0 0 16.185 20.59">
  <path id="Location" d="M6.962,20.211A17.654,17.654,0,0,1,.18,9.825a.619.619,0,0,1-.013-.084A8.1,8.1,0,0,1,8.092,0,8.1,8.1,0,0,1,16,9.837a.566.566,0,0,1-.013.082,17.69,17.69,0,0,1-6.638,10.2l-.25.183a.667.667,0,0,1-.056.036,1.9,1.9,0,0,1-.939.249A1.875,1.875,0,0,1,6.962,20.211ZM1.211,8.092a6.958,6.958,0,0,0,.157,1.472.609.609,0,0,1,.011.073,16.45,16.45,0,0,0,6.307,9.6.687.687,0,0,0,.727.064l.209-.153a16.475,16.475,0,0,0,6.162-9.421.588.588,0,0,1,.013-.083A6.882,6.882,0,1,0,1.211,8.092Zm3.418,0a3.463,3.463,0,1,1,3.463,3.462A3.467,3.467,0,0,1,4.629,8.092Zm1.211,0A2.252,2.252,0,1,0,8.092,5.839,2.254,2.254,0,0,0,5.84,8.092Z" fill="#000000"/>
</svg>
