<svg xmlns="http://www.w3.org/2000/svg" width="36" height="34.817" viewBox="0 0 36 34.817">
  <path id="Settings" d="M207.066,1479.668h-4.507a1.045,1.045,0,1,1,0-2.09h4.507a4.785,4.785,0,1,1,0,2.09Zm2-1.045a2.733,2.733,0,1,0,2.732-2.7A2.718,2.718,0,0,0,209.067,1478.623Zm10.364,1.045a1.045,1.045,0,1,1,0-2.09h17.01a1.045,1.045,0,1,1,0,2.09ZM222.351,1466a4.857,4.857,0,0,1,9.584-1.045h4.507a1.045,1.045,0,1,1,0,2.089h-4.507a4.857,4.857,0,0,1-9.584-1.045Zm2.117,0a2.733,2.733,0,1,0,2.732-2.7A2.717,2.717,0,0,0,224.468,1466Zm-21.909,1.045a1.045,1.045,0,1,1,0-2.089h17.01a1.045,1.045,0,1,1,0,2.089Zm5.691-12.623h-5.691a1.045,1.045,0,1,1,0-2.09h5.691a4.785,4.785,0,1,1,0,2.09Zm2-1.045a2.732,2.732,0,1,0,2.732-2.7A2.717,2.717,0,0,0,210.252,1453.377Zm10.364,1.045a1.045,1.045,0,1,1,0-2.09h15.825a1.045,1.045,0,1,1,0,2.09Z" transform="translate(-201.5 -1448.591)" fill="#fff"/>
</svg>
