<!DOCTYPE svg PUBLIC "-//W3C//DTD SVG 20010904//EN" "http://www.w3.org/TR/2001/REC-SVG-20010904/DTD/svg10.dtd">
<svg version="1.0" xmlns="http://www.w3.org/2000/svg" width="1600px" height="501px" viewBox="0 0 16000 5010" preserveAspectRatio="xMidYMid meet">
<g id="layer101" fill="#ff6700" stroke="none">
 <path d="M479 4807 c-52 -21 -93 -45 -124 -74 -8 -7 -18 -13 -24 -13 -6 0 -11 -3 -11 -8 0 -4 -11 -19 -24 -33 -32 -34 -69 -103 -89 -166 -16 -48 -17 -202 -17 -1993 0 -1765 1 -1947 16 -1998 9 -32 25 -69 35 -84 11 -14 19 -31 19 -37 0 -21 118 -126 171 -153 125 -62 -30 -58 2212 -58 1851 0 2051 2 2109 16 137 35 233 107 301 224 l32 55 5 794 5 795 40 -65 c47 -76 39 -65 120 -160 35 -42 98 -103 138 -137 68 -56 246 -172 264 -172 4 0 29 -11 56 -24 26 -14 80 -34 120 -46 39 -12 83 -25 97 -30 123 -41 261 -55 530 -55 261 0 347 9 510 51 94 25 225 70 245 84 6 4 21 11 35 15 34 11 204 118 265 168 79 65 175 166 211 223 10 16 21 31 24 34 3 3 20 28 37 55 89 143 151 293 187 454 l12 54 24 -89 c13 -49 30 -100 37 -114 7 -14 13 -30 13 -36 0 -5 8 -28 19 -50 10 -21 30 -64 45 -95 30 -64 120 -201 179 -274 191 -232 505 -404 845 -462 138 -24 500 -28 641 -8 64 9 127 20 141 25 14 4 45 13 70 20 148 40 317 118 415 192 68 51 157 133 205 189 58 67 60 68 60 40 0 -85 57 -222 120 -288 108 -114 190 -148 360 -147 109 0 119 2 185 33 89 42 182 134 225 222 16 35 30 67 30 72 0 5 7 24 15 43 29 65 43 99 60 149 10 28 21 55 25 60 4 6 24 55 45 110 21 55 46 119 56 142 11 23 19 44 19 48 0 3 9 24 20 48 10 23 40 96 65 162 25 66 52 134 60 152 8 17 15 34 15 37 0 3 9 25 20 49 10 23 40 96 65 162 25 66 52 134 60 152 8 17 15 34 15 37 0 3 11 29 24 58 13 29 34 81 46 116 24 66 41 70 55 15 3 -15 15 -44 25 -65 10 -21 22 -52 25 -68 4 -17 11 -32 16 -35 5 -4 9 -13 9 -21 0 -9 11 -40 25 -70 14 -30 25 -57 25 -60 0 -3 8 -24 19 -47 10 -23 40 -98 66 -167 26 -69 55 -143 65 -165 9 -22 25 -62 35 -90 10 -27 22 -54 25 -60 4 -5 26 -62 50 -125 24 -63 46 -119 50 -125 4 -5 11 -21 15 -35 4 -14 16 -43 26 -65 10 -22 39 -94 64 -160 129 -342 191 -425 360 -491 74 -28 249 -27 326 3 109 42 176 97 235 193 34 55 39 59 46 40 12 -33 63 -103 105 -143 43 -43 155 -100 225 -116 167 -39 358 34 472 178 28 36 64 120 76 176 7 34 10 479 8 1355 -3 1269 -4 1306 -23 1350 -58 135 -150 225 -280 276 -71 27 -249 27 -320 0 -61 -24 -164 -94 -190 -131 -11 -15 -25 -33 -32 -40 -29 -31 -63 -124 -73 -199 -6 -50 -10 -496 -10 -1166 0 -950 -2 -1081 -15 -1055 -31 64 -95 206 -95 210 0 2 -15 36 -34 77 -18 40 -57 127 -85 193 -29 66 -58 131 -65 145 -7 14 -37 79 -66 145 -29 66 -67 152 -85 190 -17 39 -47 104 -65 145 -18 41 -46 104 -63 140 -16 36 -38 85 -49 110 -29 67 -35 80 -121 270 -13 30 -34 78 -46 105 -12 28 -31 70 -43 95 -11 25 -26 59 -33 75 -8 17 -27 59 -43 95 -16 36 -37 83 -46 105 -28 62 -51 114 -85 186 -17 37 -31 72 -31 78 0 6 -4 11 -10 11 -5 0 -10 7 -10 14 0 19 -89 116 -138 150 -78 53 -137 69 -262 70 -91 1 -126 -3 -165 -18 -61 -23 -166 -96 -188 -129 -8 -13 -22 -30 -29 -38 -15 -15 -71 -130 -143 -294 -29 -66 -44 -98 -87 -195 -16 -36 -33 -74 -38 -85 -5 -11 -23 -51 -40 -90 -17 -38 -35 -79 -40 -90 -5 -11 -22 -49 -38 -85 -39 -87 -55 -124 -87 -195 -38 -85 -50 -113 -78 -175 -14 -30 -46 -102 -72 -160 -26 -58 -57 -127 -70 -155 -12 -27 -46 -104 -75 -170 -50 -114 -112 -250 -138 -305 -12 -24 -12 -23 -7 10 3 19 8 106 12 194 7 206 -14 340 -69 448 -26 49 -116 132 -169 156 -24 11 -57 25 -74 33 -25 12 -183 14 -902 17 l-873 3 0 29 c0 75 67 216 134 283 66 66 85 80 171 121 169 81 411 101 625 50 136 -32 208 -63 350 -149 156 -94 171 -99 295 -99 118 -1 143 5 230 58 127 77 190 194 189 351 0 158 -57 261 -210 381 -106 83 -277 174 -410 219 -43 14 -88 30 -99 35 -48 20 -259 61 -365 70 -202 17 -511 7 -630 -20 -263 -62 -291 -71 -461 -155 -53 -26 -128 -70 -165 -98 -63 -46 -207 -184 -261 -250 -38 -45 -120 -182 -158 -264 -38 -80 -105 -273 -105 -303 0 -38 -15 -28 -26 17 -23 92 -42 152 -58 184 -9 18 -16 37 -16 43 0 18 -89 186 -133 251 -70 104 -167 212 -247 275 -18 14 -37 30 -44 35 -62 56 -248 154 -376 198 -330 115 -822 130 -1165 36 -164 -44 -386 -145 -451 -204 -6 -5 -22 -17 -34 -25 -102 -67 -243 -224 -347 -386 -9 -15 -12 23 -12 185 l-1 204 -32 66 c-41 84 -120 162 -207 204 l-66 32 -2125 2 -2125 2 -56 -22z m2561 -17 c181 -20 324 -48 475 -94 66 -20 129 -41 140 -46 195 -89 314 -157 400 -230 50 -42 159 -153 185 -188 14 -19 31 -40 37 -47 20 -21 113 -196 120 -225 3 -14 9 -30 14 -35 7 -10 17 -44 40 -140 25 -109 31 -180 27 -349 -4 -156 -8 -194 -31 -276 -64 -232 -140 -364 -302 -525 -71 -71 -103 -99 -170 -145 -27 -19 -57 -42 -67 -50 -41 -34 -242 -137 -378 -195 -36 -15 -79 -34 -97 -41 -17 -8 -112 -41 -210 -73 -167 -55 -205 -67 -343 -108 -30 -8 -64 -19 -75 -23 -11 -4 -47 -15 -80 -25 -213 -63 -549 -199 -575 -234 -3 -3 -22 -17 -42 -31 -21 -14 -38 -28 -38 -32 0 -4 -9 -15 -19 -25 -10 -10 -29 -36 -42 -58 -33 -56 -34 -207 -2 -277 82 -178 323 -278 668 -277 181 0 412 41 532 95 18 8 51 21 73 29 64 23 197 99 247 141 12 11 36 30 53 44 18 14 37 30 44 35 11 10 73 51 116 77 102 61 291 62 409 1 48 -25 68 -40 121 -94 53 -54 59 -63 82 -109 28 -60 38 -101 38 -160 0 -112 -53 -220 -165 -333 -80 -82 -95 -96 -170 -152 -99 -75 -279 -170 -415 -219 -41 -15 -82 -31 -90 -35 -9 -5 -31 -12 -50 -15 -19 -4 -44 -11 -55 -16 -18 -7 -56 -17 -200 -51 -93 -21 -459 -59 -575 -58 -126 0 -460 35 -555 58 -22 5 -49 12 -60 14 -40 10 -200 58 -220 66 -11 5 -38 17 -60 26 -105 44 -259 128 -290 158 -7 7 -23 19 -36 27 -30 19 -198 188 -224 226 -178 255 -247 552 -199 852 15 93 49 212 79 279 8 17 15 33 15 36 0 12 100 165 131 201 73 85 149 154 254 233 12 9 72 48 130 85 51 32 210 108 330 158 11 4 36 15 57 24 20 9 41 16 47 16 6 0 19 4 29 10 20 11 214 75 362 120 58 17 116 35 130 40 14 5 52 16 85 25 33 9 69 21 80 25 11 5 56 20 100 33 69 22 129 43 210 76 11 4 73 34 138 66 269 134 361 300 301 537 -36 141 -115 219 -299 298 -48 21 -186 46 -330 61 -118 12 -365 6 -437 -10 -24 -6 -74 -17 -113 -26 -93 -21 -192 -59 -290 -110 -89 -46 -128 -67 -135 -75 -3 -3 -30 -21 -60 -40 -30 -19 -60 -39 -66 -45 -6 -5 -30 -26 -54 -45 -52 -41 -115 -96 -148 -127 -34 -34 -120 -86 -177 -108 -58 -23 -236 -28 -276 -8 -13 6 -50 24 -83 39 -63 30 -139 98 -172 154 -76 129 -85 252 -25 373 18 37 38 73 44 80 7 6 24 28 39 48 56 76 240 249 313 295 17 10 32 21 35 25 21 27 377 219 405 219 4 0 23 7 43 16 21 9 46 20 57 25 41 18 263 82 325 94 64 13 84 16 190 36 145 27 536 32 750 9z m3540 -805 c78 -13 195 -54 229 -80 8 -5 44 -40 81 -76 92 -91 161 -232 190 -394 34 -192 36 -479 4 -654 -26 -145 -90 -311 -145 -376 -82 -97 -150 -143 -266 -181 -76 -24 -105 -28 -208 -28 -226 -1 -357 56 -483 208 -24 29 -82 134 -82 148 0 5 -8 27 -19 51 -55 123 -82 403 -63 654 6 87 17 176 23 198 34 119 44 152 56 175 7 14 13 28 13 33 0 33 155 226 182 227 4 0 13 6 20 13 12 11 38 24 108 55 35 16 166 39 225 41 28 0 88 -6 135 -14z m3440 -1360 c0 -26 -33 -130 -54 -169 -26 -49 -76 -113 -111 -141 -20 -16 -42 -34 -49 -40 -18 -16 -76 -41 -136 -61 -40 -13 -88 -17 -180 -17 -135 0 -201 13 -300 61 -55 26 -160 99 -160 111 0 3 -11 18 -24 32 -40 44 -105 186 -106 232 0 16 33 17 560 17 l560 0 0 -25z"/>
 <path d="M15225 4774 c-123 -20 -268 -126 -319 -235 -55 -119 -51 -19 -51 -1439 0 -1257 1 -1307 19 -1365 49 -153 172 -266 337 -310 171 -46 370 27 487 179 18 23 57 103 71 147 16 51 16 2656 0 2696 -31 75 -44 101 -70 138 -32 47 -58 74 -89 95 -12 8 -28 20 -34 25 -13 12 -45 28 -101 50 -40 17 -192 28 -250 19z"/>
 <path d="M13990 1213 c-122 -42 -202 -105 -257 -203 -90 -160 -93 -420 -6 -589 52 -100 139 -173 252 -212 105 -36 297 -36 435 0 143 36 254 156 300 323 21 74 21 276 1 355 -38 144 -113 238 -239 298 -90 43 -156 55 -289 54 -104 0 -133 -4 -197 -26z"/>
 <path d="M15118 1216 c-121 -42 -197 -99 -255 -191 -40 -64 -58 -119 -73 -226 -10 -73 -9 -102 5 -195 10 -60 21 -113 25 -119 4 -5 11 -21 15 -35 21 -66 85 -141 166 -193 90 -57 153 -71 319 -71 157 0 220 12 309 62 78 42 166 144 185 212 4 14 11 34 16 45 30 73 40 253 19 342 -40 171 -118 274 -254 339 -92 43 -150 54 -285 53 -104 0 -136 -4 -192 -23z"/>
 </g>

</svg>